<svg width="13" height="14" viewBox="0 0 13 14" fill="none" xmlns="http://www.w3.org/2000/svg">
<path fill-rule="evenodd" clip-rule="evenodd" d="M6.67278 1.2183C7.72056 0.00590003 9.17715 0 9.17715 0C9.17715 0 9.39379 1.13985 8.35295 2.2379C7.24155 3.4104 5.97826 3.21855 5.97826 3.21855C5.97826 3.21855 5.74106 2.29645 6.67278 1.2183ZM6.11153 4.017C6.65057 4.017 7.65091 3.3665 8.95304 3.3665C11.1945 3.3665 12.0762 4.76675 12.0762 4.76675C12.0762 4.76675 10.3516 5.54085 10.3516 7.4192C10.3516 9.53815 12.5 10.2684 12.5 10.2684C12.5 10.2684 10.9982 13.9794 8.96973 13.9794C8.03807 13.9794 7.31376 13.4282 6.3321 13.4282C5.33175 13.4282 4.83902 14 4.1924 14C2.34012 14.0001 0 10.4798 0 7.65005C0 4.866 1.98076 3.4055 3.83862 3.4055C5.04638 3.4055 5.48364 4.017 6.11153 4.017Z" fill="white"/>
</svg>
