<svg width="12" height="13" viewBox="0 0 12 13" fill="none" xmlns="http://www.w3.org/2000/svg">
<path d="M6.12268 2.36744C7.27241 2.36744 8.04793 2.86409 8.49018 3.27908L10.2182 1.59191C9.15686 0.605445 7.77582 0 6.12268 0C3.72805 0 1.65991 1.3742 0.653076 3.37428L2.63272 4.91179C3.12937 3.43551 4.50357 2.36744 6.12268 2.36744Z" fill="#EA4335"/>
<path d="M12.0001 6.25956C12.0001 5.75614 11.9593 5.38878 11.8709 5.00781H6.12231V7.28H9.49665C9.42859 7.84464 9.06123 8.69506 8.24484 9.26647L10.1769 10.7632C11.3335 9.69506 12.0001 8.12358 12.0001 6.25956Z" fill="#4285F4"/>
<path d="M2.63961 7.33441C2.51032 6.95345 2.4355 6.54523 2.4355 6.12346C2.4355 5.70164 2.51032 5.29348 2.63278 4.91251L0.653073 3.375C0.238139 4.20498 0 5.137 0 6.12346C0 7.10987 0.238139 8.04194 0.653073 8.87187L2.63961 7.33441Z" fill="#FBBC05"/>
<path d="M6.12275 12.2458C7.77589 12.2458 9.16369 11.7016 10.1774 10.7627L8.24528 9.26606C7.72826 9.6266 7.03433 9.87834 6.12275 9.87834C4.50364 9.87834 3.12944 8.81021 2.63962 7.33398L0.659912 8.87144C1.66675 10.8716 3.72805 12.2458 6.12275 12.2458Z" fill="#34A853"/>
</svg>
