<svg width="157" height="158" viewBox="0 0 157 158" fill="none" xmlns="http://www.w3.org/2000/svg">
<path fill-rule="evenodd" clip-rule="evenodd" d="M125.238 17.8155C87.2468 -8.73264 46.0515 -7.35946 18.1302 33.8359C5.77161 52.1449 -1.552 81.4394 0.278901 97.4598C2.56753 115.769 16.757 134.078 32.3197 144.148C52.9174 157.422 86.3314 161.084 103.725 153.302C130.273 141.401 154.075 99.7484 156.821 78.2353C158.652 59.9263 145.836 32.4627 125.238 17.8155Z" fill="#1F2021"/>
<path fill-rule="evenodd" clip-rule="evenodd" d="M115.168 22.3925C100.063 12.3225 89.0779 6.82979 75.8038 7.74525C55.2061 8.6607 24.9962 29.7161 17.6726 57.6374C14.4685 69.996 18.5881 90.1359 24.9962 100.206C38.728 121.719 62.9875 134.535 84.0429 134.078C111.506 133.162 142.174 106.156 145.836 76.8619C148.582 61.2992 136.224 36.1243 115.168 22.3925ZM35.0662 37.9552C45.5939 20.1038 62.072 9.11842 77.6347 16.442C66.6493 18.7307 55.2061 21.9348 45.1362 30.1738C41.9321 32.9202 40.1012 38.4129 35.0662 37.9552ZM115.168 116.684C101.894 128.585 87.7047 134.993 72.142 127.669C75.8038 124.008 82.212 126.754 87.7047 125.381C96.8592 123.55 105.098 117.142 114.253 114.853C115.168 115.769 115.626 116.226 115.168 116.684ZM131.189 87.8473C134.85 90.1359 135.766 92.4245 132.562 95.1709C131.646 95.1709 130.731 94.7132 130.273 95.6286C127.985 94.2555 128.442 92.8823 127.527 91.0514C128.9 89.2205 129.815 87.8473 131.189 87.8473Z" fill="#FFD60A"/>
<path d="M32.1733 92.0341C30.3792 90.9215 29.952 88.0116 29.5248 86.1287C28.7559 82.4485 28.1579 78.7683 27.7307 75.0881C27.6453 74.489 27.5598 73.8043 27.5598 73.1196C27.4744 72.007 27.3035 70.8088 27.3035 69.6105C27.2181 68.6691 27.1327 67.7277 27.1327 66.8718C27.1327 66.1871 27.3036 65.5024 27.2181 64.8177C26.9618 64.561 23.3736 65.0745 23.0319 65.1601C22.263 65.2457 21.7504 65.0745 21.665 64.133C21.5795 63.5339 21.5795 62.1645 22.1775 61.8222C23.3736 61.0519 24.9969 60.8807 26.3638 60.7096C27.9016 60.4528 29.5248 60.2816 31.0626 60.1961C33.4548 59.9393 35.8469 59.5114 38.239 59.5114C38.9225 59.5114 41.2292 59.169 41.6563 59.8537C41.9981 60.3672 41.9126 61.3087 41.7418 61.8222C41.4 63.0204 40.2894 62.9348 39.2642 63.1916C39.0079 63.1916 35.4197 63.7051 35.4197 63.7051C35.4197 65.1601 35.4197 66.615 35.4197 67.8988C35.5051 69.1826 35.5906 70.4664 35.676 71.7502C36.1886 76.971 37.7264 82.1061 38.837 87.2413C39.0933 88.4395 39.8623 90.6648 38.5808 91.435C37.9827 91.7774 37.2992 91.863 36.7012 91.9486C35.9323 92.2053 35.1634 92.2909 34.4799 92.3765C33.7111 92.4621 32.8567 92.4621 32.1733 92.0341Z" fill="#1C1C1E"/>
<path d="M51.7376 89.0375C50.1998 88.0961 49.0037 86.7267 48.0639 85.1861C45.8427 81.9339 44.8175 77.9969 44.732 72.605C44.6466 69.9518 45.3301 67.213 46.3553 64.8166C47.295 62.5914 48.4911 60.0238 50.7124 58.8256C54.2151 57.0283 58.914 56.8571 62.3313 59.0823C62.673 59.2535 62.9293 59.5103 63.2711 59.8526C65.7486 62.0778 66.8593 65.3301 67.6282 68.5824C67.799 68.9247 67.799 69.1815 67.8845 69.5238C68.6534 74.3167 68.4825 77.7401 67.4573 80.9924C66.4321 84.1591 64.9797 87.2402 61.9896 88.9519C59.9392 90.1501 57.7179 90.3213 55.4112 90.2357C54.0443 90.2357 52.7628 89.8078 51.7376 89.0375ZM63.8691 79.1095C64.2108 77.141 64.2963 75.087 63.8691 71.6635V71.4067C63.6982 69.0959 63.4419 66.9563 62.1604 64.9878C61.3061 63.8752 60.11 62.8481 58.7431 62.4202C56.7781 61.8211 55.2403 62.6769 54.4714 64.4743C53.4463 67.0418 53.2754 69.8662 53.4462 72.605C53.788 77.2266 54.386 80.4789 56.0092 83.3032C56.6927 84.5014 57.6325 85.6997 58.9994 85.7852C62.1604 86.1276 63.4419 81.4203 63.8691 79.1095Z" fill="#1C1C1E"/>
<path d="M73.8648 75.1736C73.5231 75.2592 73.0959 75.3448 72.7542 75.2592H72.5833C72.4979 75.2592 72.4979 75.1736 72.4979 75.1736C72.327 74.8313 71.4727 69.3538 71.729 69.097C71.8999 69.0114 72.2416 69.0114 72.4125 69.0114L73.1814 68.8402C74.3774 68.6691 75.5735 68.5835 76.7695 68.4123C77.9656 68.2411 79.2471 68.07 80.4432 67.9844C80.5286 67.9844 80.614 67.9844 80.614 67.9844C80.6994 67.9844 80.6994 68.07 80.6994 68.1556C80.7849 68.5835 81.2975 73.6331 81.2975 74.061C81.2975 74.4033 79.2471 74.6601 77.3676 74.8313C76.3424 74.9169 75.1463 75.0024 73.8648 75.1736Z" fill="#1C1C1E"/>
<path d="M91.6348 85.8717C90.4388 85.7006 89.5844 84.5879 89.2427 83.5609C88.3029 80.9077 87.2777 78.0834 86.6797 75.259C86.1671 72.4347 85.7399 69.6103 85.5691 66.7004L85.1419 61.9932C85.0565 60.5382 84.8856 59.0832 84.971 57.6283C84.971 56.5156 84.971 54.8039 85.4836 53.6913C85.8254 53.0066 86.5943 52.6643 87.3632 52.4931C88.3884 52.2363 89.499 51.9796 90.5242 51.9796C92.4892 51.8084 94.625 51.9796 96.3337 52.8354C104.108 56.2589 109.405 64.3896 107.782 73.0338C107.525 74.3176 107.184 75.5158 106.586 76.714C105.988 78.0834 105.475 79.3672 104.535 80.4798C102.827 82.705 100.434 84.5023 97.6152 85.3582C95.8211 86.0429 93.6852 86.1285 91.6348 85.8717ZM99.8364 79.4528C100.605 78.5113 101.289 77.5699 101.801 76.6284C102.912 74.6599 103.51 72.4347 103.51 70.1239C103.51 69.6103 103.51 69.1824 103.425 68.7545C103.168 65.6734 101.972 62.9346 100.007 60.6238C99.153 59.6823 98.2986 58.7409 97.188 57.9706C96.0774 57.2859 95.0522 56.858 93.7707 56.5156H93.5998C93.5144 56.6012 93.4289 56.6868 93.4289 56.858C93.1726 58.5697 93.5998 60.2814 93.7707 61.9076C94.027 64.2184 94.3687 66.4436 94.5396 68.7545C94.7104 70.723 94.9667 72.6914 95.223 74.6599L95.8211 77.6554L96.3337 79.5383C96.59 80.3942 96.59 81.1645 96.9317 81.9348C97.188 82.0203 99.6656 79.6239 99.8364 79.4528Z" fill="#1C1C1E"/>
<path d="M118.376 81.5922C116.838 80.6507 115.642 79.2814 114.702 77.7408C112.481 74.4885 111.455 70.5516 111.37 65.1596C111.285 62.5065 111.968 59.7677 112.993 57.3713C113.933 55.146 115.129 52.5785 117.35 51.3802C120.853 49.5829 125.552 49.4118 128.969 51.637C129.311 51.8082 129.567 52.0649 129.909 52.4073C132.387 54.6325 133.497 57.8848 134.266 61.1371C134.437 61.4794 134.437 61.7362 134.522 62.0785C135.291 66.8714 135.12 70.2948 134.095 73.5471C133.07 76.7138 131.618 79.7949 128.628 81.5066C126.577 82.7048 124.356 82.876 122.049 82.7904C120.682 82.7904 119.401 82.3625 118.376 81.5922ZM130.422 71.6642C130.763 69.6957 130.849 67.6416 130.422 64.2182V63.9614C130.251 61.6506 129.994 59.5109 128.713 57.5425C127.859 56.4298 126.663 55.4028 125.296 54.9749C123.331 54.3758 121.793 55.2316 121.024 57.0289C119.999 59.5965 119.828 62.4209 119.999 65.1596C120.34 69.7813 120.939 73.0336 122.562 75.8579C123.245 77.0561 124.185 78.2543 125.552 78.3399C128.798 78.6823 130.08 73.975 130.422 71.6642Z" fill="#1C1C1E"/>
<path fill-rule="evenodd" clip-rule="evenodd" d="M39.6434 129.958C25.9117 119.43 18.5881 105.699 11.7222 91.9668C12.1799 98.375 14.0108 110.276 18.1303 117.142C37.3548 147.809 78.0924 151.013 97.7746 141.401C82.212 140.943 57.9525 143.69 39.6434 129.958Z" fill="white"/>
</svg>
