<svg width="20" height="21" viewBox="0 0 20 21" fill="none" xmlns="http://www.w3.org/2000/svg">
<path d="M14.24 6.18871C13.07 5.01871 11.54 4.42871 10 4.42871V10.4287L5.76 14.6687C8.1 17.0087 11.9 17.0087 14.25 14.6687C16.59 12.3287 16.59 8.52871 14.24 6.18871ZM10 0.428711C4.48 0.428711 0 4.90871 0 10.4287C0 15.9487 4.48 20.4287 10 20.4287C15.52 20.4287 20 15.9487 20 10.4287C20 4.90871 15.52 0.428711 10 0.428711ZM10 18.4287C5.58 18.4287 2 14.8487 2 10.4287C2 6.00871 5.58 2.42871 10 2.42871C14.42 2.42871 18 6.00871 18 10.4287C18 14.8487 14.42 18.4287 10 18.4287Z" fill="black"/>
</svg>
