<svg width="20" height="20" viewBox="0 0 20 20" fill="none" xmlns="http://www.w3.org/2000/svg">
<path d="M17.1401 11.083C17.1801 10.783 17.2001 10.473 17.2001 10.143C17.2001 9.82297 17.1801 9.50297 17.1301 9.20297L19.1601 7.62297C19.3401 7.48297 19.3901 7.21297 19.2801 7.01297L17.3601 3.69297C17.2401 3.47297 16.9901 3.40297 16.7701 3.47297L14.3801 4.43297C13.8801 4.05297 13.3501 3.73297 12.7601 3.49297L12.4001 0.952969C12.3601 0.712969 12.1601 0.542969 11.9201 0.542969H8.08011C7.84011 0.542969 7.65011 0.712969 7.61011 0.952969L7.25011 3.49297C6.66011 3.73297 6.12011 4.06297 5.63011 4.43297L3.24011 3.47297C3.02011 3.39297 2.77011 3.47297 2.65011 3.69297L0.74011 7.01297C0.62011 7.22297 0.66011 7.48297 0.86011 7.62297L2.89011 9.20297C2.84011 9.50297 2.80011 9.83297 2.80011 10.143C2.80011 10.453 2.82011 10.783 2.87011 11.083L0.84011 12.663C0.66011 12.803 0.61011 13.073 0.72011 13.273L2.64011 16.593C2.76011 16.813 3.01011 16.883 3.23011 16.813L5.62011 15.853C6.12011 16.233 6.65011 16.553 7.24011 16.793L7.60011 19.333C7.65011 19.573 7.84011 19.743 8.08011 19.743H11.9201C12.1601 19.743 12.3601 19.573 12.3901 19.333L12.7501 16.793C13.3401 16.553 13.8801 16.233 14.3701 15.853L16.7601 16.813C16.9801 16.893 17.2301 16.813 17.3501 16.593L19.2701 13.273C19.3901 13.053 19.3401 12.803 19.1501 12.663L17.1401 11.083ZM10.0001 13.743C8.02011 13.743 6.40011 12.123 6.40011 10.143C6.40011 8.16297 8.02011 6.54297 10.0001 6.54297C11.9801 6.54297 13.6001 8.16297 13.6001 10.143C13.6001 12.123 11.9801 13.743 10.0001 13.743Z" fill="black"/>
</svg>
